<?xml version="1.0" standalone="no"?>
<!DOCTYPE svg PUBLIC "-//W3C//DTD SVG 20010904//EN"
 "http://www.w3.org/TR/2001/REC-SVG-20010904/DTD/svg10.dtd">
<svg version="1.0" xmlns="http://www.w3.org/2000/svg"
 width="980.000000pt" height="980.000000pt" viewBox="0 0 980.000000 980.000000"
 preserveAspectRatio="xMidYMid meet">

<g transform="translate(0.000000,980.000000) scale(0.100000,-0.100000)"
fill="#000000" stroke="none">
<path d="M4560 9789 c-1035 -75 -1998 -463 -2800 -1128 -150 -123 -501 -475
-622 -621 -881 -1068 -1270 -2403 -1098 -3765 119 -934 501 -1801 1124 -2545
98 -117 370 -393 496 -504 1328 -1166 3158 -1531 4825 -962 895 305 1700 879
2281 1627 735 946 1100 2126 1024 3314 -70 1094 -491 2109 -1216 2935 -112
128 -386 398 -509 501 -763 642 -1665 1026 -2665 1134 -174 19 -664 27 -840
14z m622 -2329 c233 -49 416 -143 574 -292 211 -201 321 -448 359 -810 l6 -58
153 0 c173 0 235 -9 315 -46 121 -55 210 -149 245 -259 8 -28 117 -743 242
-1590 247 -1681 241 -1627 194 -1765 -52 -155 -161 -265 -309 -310 -62 -20
-104 -20 -2061 -20 -1957 0 -1999 0 -2061 20 -147 45 -257 156 -309 310 -47
139 -53 88 198 1787 258 1744 235 1625 340 1730 110 107 219 143 444 143 170
0 152 -13 163 123 15 200 111 452 233 613 182 241 465 398 794 443 113 15 366
5 480 -19z"/>
<path d="M4665 7244 c-334 -59 -582 -241 -712 -522 -43 -92 -82 -242 -90 -344
l-6 -78 1036 0 1036 0 -4 33 c-24 195 -53 304 -116 428 -128 255 -384 432
-700 484 -116 19 -336 18 -444 -1z"/>
<path d="M3710 5731 c-94 -31 -177 -107 -204 -188 -21 -61 -20 -157 1 -219 23
-69 110 -155 182 -179 77 -25 171 -17 241 21 214 117 211 434 -6 540 -58 28
-166 41 -214 25z"/>
<path d="M5950 5731 c-138 -45 -223 -158 -223 -296 0 -95 29 -160 99 -224 69
-63 132 -85 224 -79 258 19 372 336 187 521 -21 21 -60 48 -85 60 -50 22 -161
32 -202 18z"/>
</g>
</svg>
